<svg width="203" height="175" viewBox="0 0 203 175" fill="none" xmlns="http://www.w3.org/2000/svg">
<path fill-rule="evenodd" clip-rule="evenodd" d="M99.055 7.94881C100.342 4.05741 101.329 1.07449 101.356 1.00232C101.386 0.908735 101.437 0.887939 101.488 0.95033C101.672 1.15831 115.782 23.7756 117.129 26.0217C117.548 26.7184 117.915 27.2904 117.946 27.3008C117.977 27.3008 119.038 26.1881 120.294 24.8259C128.574 15.9037 138.732 4.42351 140.845 1.59505C141.131 1.2103 141.387 0.898337 141.427 0.887939C141.458 0.887939 141.54 1.85502 141.601 3.04048C142.234 13.7616 143.643 29.3909 144.01 29.7757C144.041 29.7965 144.184 29.5677 144.337 29.2557C144.48 28.9542 144.95 28.1951 145.378 27.5607C146.991 25.1586 148.87 22.9437 151.739 20.0736C154.465 17.3388 157.037 15.1654 160.1 12.9817C161.1 12.2696 161.521 11.9638 161.598 12.0342C161.657 12.0882 161.514 12.3635 161.274 12.8465C157.456 20.5832 155.23 30.1188 154.332 42.5245C154.24 43.7308 154.148 44.7291 154.128 44.7499C154.107 44.7811 153.791 44.7291 153.444 44.6355C152.045 44.2715 145.93 42.8573 143.714 42.379C137.823 41.0999 132.453 40.2888 127.124 39.8625C124.858 39.6857 115.169 39.6857 112.678 39.8625C102.387 40.6112 93.8825 42.1606 84.9085 44.9267C76.445 47.5367 67.7262 51.4259 60.6308 55.7622C60.0182 56.1365 59.4873 56.3965 59.4465 56.3549C59.4056 56.3029 59.1708 55.5542 58.936 54.7015C55.7915 43.502 50.6767 32.209 45.4597 24.9714C45.1738 24.5659 44.9594 24.2331 44.9799 24.2123C45.0411 24.1499 48.5021 25.8761 50.2683 26.8432C54.74 29.2973 59.2117 32.3234 62.1417 34.8919C63.3464 35.9525 65.0616 37.7515 65.4598 38.3858C65.7456 38.833 65.7763 38.8538 65.7252 38.5834C65.6333 38.1259 65.1331 34.7463 64.4899 30.2124C63.3771 22.4342 62.3663 15.9765 61.6823 12.285C61.519 11.3699 61.3965 10.6108 61.4067 10.59C61.4271 10.5692 61.8252 10.8499 62.3051 11.2035C69.4006 16.4965 90.6053 31.1483 91.1771 31.1483C91.32 31.1483 93.5762 24.5035 98.4461 9.78927L99.055 7.94881ZM68.217 57.5403C83.6637 49.9701 99.1206 45.8521 115.384 44.9371C115.752 44.9163 118.62 44.9163 121.765 44.9267C127.431 44.9579 128.687 45.0202 131.321 45.3946C132.25 45.5298 133.363 46.1121 135.599 47.6303C140.428 50.9059 146.574 56.8852 149.208 60.8575C149.442 61.2111 149.657 61.5127 149.687 61.5127C149.779 61.5127 149.596 59.1106 149.381 57.5091C149.014 54.8679 148.401 52.0186 147.605 49.3461C147.401 48.691 147.258 48.1399 147.288 48.1191C147.349 48.0567 151.025 49.0758 153.322 49.8037C159.866 51.873 165.706 54.5143 171.321 57.9459C174.333 59.7865 176.538 61.3463 180.571 64.4659C181.755 65.381 182.735 66.1401 182.755 66.1609C182.776 66.1713 182.837 66.6704 182.878 67.2528C183.439 74.116 185.032 79.6273 188.932 88.2271C189.361 89.1733 189.688 89.9533 189.667 89.9741C189.647 89.9949 189.412 89.7661 189.146 89.4645C188.881 89.1629 188.034 88.3102 187.268 87.5719C178.896 79.5233 164.777 69.7797 157.681 67.1696C157.048 66.9304 156.732 66.8576 156.732 66.9512C156.732 67.2632 156.201 70.726 156.017 71.6618C155.69 73.2737 155.129 75.3846 154.721 76.4765C154.312 77.5787 153.7 78.9514 153.567 79.0346C153.526 79.0658 152.893 78.6498 152.178 78.1195C143.552 71.8074 134.935 66.3897 129.708 64.0084L128.758 63.582L127.155 63.8524C113.618 66.1089 101.06 71.7554 93.1379 79.1593L92.4845 79.7729L95.2819 82.2998C96.8235 83.6932 98.0895 84.8787 98.1099 84.9203C98.1303 84.9619 97.7423 85.1282 97.2421 85.2738C92.1783 86.8544 86.7163 90.5252 82.755 95.007C81.438 96.4941 80.4375 97.8147 80.5396 97.9083C80.5805 97.9499 82.7857 98.3866 85.4197 98.8858C88.0639 99.3849 90.2895 99.8113 90.3814 99.8425C90.5141 99.8737 90.5652 100.092 90.6162 100.799C91.1267 107.278 95.1083 113.038 101.653 116.813C103.296 117.76 106.318 119.195 107.462 119.579C108.779 120.016 110.494 120.401 112.291 120.65C114.384 120.942 121.142 120.91 126.053 120.578C130.943 120.255 137.293 120.224 139.784 120.505C143.756 120.962 146.951 121.721 149.504 122.813C149.893 122.981 150.125 123.091 150.159 123.046C150.209 122.983 149.867 122.613 149.024 121.669C143.96 115.992 138.212 110.096 134.22 106.487C133.331 105.682 132.971 105.321 132.536 105.128C132.112 104.94 131.618 104.91 130.494 104.782C127.645 104.47 125.532 104.376 122.326 104.439C118.069 104.512 115.129 104.231 112.199 103.472C110.453 103.024 109.248 102.577 108.595 102.13C107.717 101.537 106.635 100.976 104.021 99.7385C101.795 98.6882 100.356 97.9083 99.7229 97.4404C99.4779 97.2532 99.5085 97.2116 100.723 96.1509C105.379 92.085 110.923 88.9654 116.364 87.3536L117.916 86.896L119.529 87.3952C125.103 89.1006 130.994 91.8978 134.761 94.6223C135.282 94.9967 135.721 95.3086 135.741 95.3086C135.762 95.3086 136.14 94.9967 136.579 94.6223C138.263 93.1977 140.693 91.7626 142.633 91.0451C143.664 90.6604 145.491 90.2132 146.043 90.2132H146.431L145.777 90.9931C144.45 92.5737 143.48 94.3519 143.031 96.0365C142.684 97.326 142.694 99.5617 143.041 100.82L143.286 101.704L144.573 102.952C148.901 107.142 154.557 113.142 158.917 118.155L159.927 119.319L160.601 118.976C163.225 117.645 166.962 116.72 171.362 116.314C172.914 116.179 177.549 116.169 179.192 116.314C184.328 116.751 188.32 117.822 190.372 119.309L190.882 119.683L190.586 119.267C188.064 115.836 184.522 112.227 178.988 107.475C174.344 103.481 173.946 103.169 173.783 102.762C173.755 102.692 173.734 102.62 173.7 102.525C173.22 101.267 171.699 98.813 168.524 94.1647C167.523 92.7089 166.614 91.3675 166.502 91.1699L166.308 90.8268L166.696 91.0139C169.524 92.345 173.832 94.9863 176.589 97.066L177.712 97.9083L178.059 97.4715C179.213 95.9949 181.367 94.2375 182.817 93.5928C183.654 93.2081 184.879 92.8129 185.206 92.8129C185.532 92.8129 186.615 93.728 187.36 94.6327C188.861 96.4317 189.82 98.6986 189.973 100.789C190.076 102.047 189.953 102.328 188.963 103.264C188.074 104.116 186.951 104.979 186.747 104.979C186.686 104.979 186.645 105.021 186.666 105.063C186.686 105.115 188.81 107.444 191.393 110.252C195.762 114.993 196.089 115.326 196.16 115.077C196.201 114.931 196.354 113.402 196.497 111.687C196.64 109.971 196.773 108.515 196.793 108.463C196.844 108.286 199.948 113.236 202.082 116.886C212.607 134.938 218.794 152.512 220.734 169.92C222.602 186.589 220.816 203.06 215.221 220.967L214.609 222.922L214.333 222.6C213.649 221.789 204.46 211.276 204.44 211.296C204.43 211.307 204.348 212.055 204.256 212.971C203.215 223.608 200.642 233.789 196.712 242.784C190.443 257.155 180.601 269.425 167.033 279.803C164.501 281.737 160.652 284.441 160.56 284.348C160.54 284.316 159.55 280.625 158.365 276.143C157.181 271.651 156.181 267.897 156.14 267.793C156.078 267.637 155.976 267.678 155.354 268.146C147.574 273.928 137.212 278.961 127.002 281.914C105.634 288.081 84.2048 286.458 66.2261 277.318C65.2358 276.808 63.2144 275.717 62.6325 275.363C62.6222 275.363 62.6733 275.072 62.755 274.739C62.9592 273.824 64.1843 267.522 64.5314 265.536C65.6034 259.599 66.461 253.047 66.8285 248.014C67.8086 234.985 66.9204 223.265 64.072 211.515C63.5309 209.279 62.6733 206.159 62.6018 206.159C62.5712 206.159 62.3058 206.565 61.9995 207.074C61.6932 207.574 60.6518 209.196 59.6922 210.683C54.6896 218.388 49.4726 225.283 43.6737 231.844C41.8667 233.893 36.0372 239.82 34.2199 241.463C31.8513 243.595 27.9207 246.818 27.6757 246.818C27.5838 246.818 26.2566 244.26 25.6543 242.888C20.9376 232.302 18.2525 217.879 17.7727 200.596C17.4664 189.417 18.569 177.324 20.376 171.958C20.519 171.531 20.6313 171.168 20.6109 171.157C20.5904 171.136 16.1902 172.852 10.8405 174.963C5.48064 177.084 1.04979 178.811 0.998742 178.811C0.947695 178.811 0.937486 178.207 0.978323 177.376C1.59088 165.178 7.34894 147.178 15.2612 132.796C18.375 127.118 21.9381 121.815 25.103 118.123C25.7053 117.406 25.7359 117.354 25.5215 117.302C25.3888 117.271 22.5608 116.688 19.2326 116.013C15.9044 115.337 13.1581 114.754 13.1274 114.723C13.0355 114.629 15.6593 109.451 17.007 107.07C20.1004 101.6 23.6941 96.2341 27.4205 91.5131C34.0259 83.1525 42.1832 75.2806 50.3608 69.3845L51.0449 68.8958L50.3608 70.2684C49.3297 72.3378 48.6865 74.5839 48.2884 77.4228C48.1148 78.7018 48.1148 82.9757 48.2884 84.2339C48.9417 88.9342 50.4834 92.8441 52.9949 96.1925C54.1485 97.7419 56.1189 99.6033 57.8953 100.82C58.7019 101.371 60.4477 102.38 60.5906 102.38C60.6212 102.38 60.3149 101.662 59.9066 100.789C57.6809 96.0573 56.415 91.6483 55.9658 87.104C55.833 85.7418 55.833 83.0589 55.9658 81.8422C56.4558 77.402 58.1199 73.4296 60.5089 71.0171C62.5406 68.979 65.2052 67.6271 68.1659 67.1696C69.5238 66.9512 71.8311 67.024 73.3625 67.336C76.2619 67.9183 79.6208 69.4677 82.1425 71.3915C82.5202 71.6826 82.8571 71.901 82.8776 71.8802C82.9592 71.8074 81.4585 68.8958 80.7642 67.7727C77.63 62.6461 73.7096 59.5681 69.2379 58.705C68.707 58.601 67.8801 58.4762 67.4002 58.4346L66.5324 58.3618L68.217 57.5403ZM172.485 137.476C168.493 135.749 164.093 133.326 160.183 130.696C159.305 130.103 158.57 129.624 158.549 129.635C158.545 129.635 158.465 129.652 158.335 129.679C158.159 129.716 157.893 129.773 157.6 129.832C150.3 131.319 141.939 135.209 132.842 141.323C129.953 143.268 125.236 146.751 125.032 147.094C125.001 147.157 125.675 148.467 126.543 150.027C130.228 156.672 134.363 164.523 137.712 171.22L138.304 172.415L139.019 172.499C140.846 172.727 143.991 172.415 146.451 171.781C153.822 169.888 163.051 164.356 172.434 156.214L173.884 154.956V146.522V138.089L172.485 137.476ZM198.804 148.55C198.172 143.143 196.773 137.496 194.762 132.245C194.496 131.548 194.241 130.976 194.21 130.987C194.18 130.987 193.924 131.164 193.639 131.382C191.862 132.744 187.431 135.801 184.705 137.538L182.817 138.744L182.786 147.136L182.766 155.538L184.113 157.056C187.023 160.311 187.819 161.226 188.636 162.225C190.923 165.053 192.495 167.518 194.139 170.866L194.894 172.405L195.466 171.24C197.467 167.174 198.611 162.797 199.009 157.66C199.182 155.455 199.07 150.88 198.804 148.55ZM188.309 181.566C186.921 177.979 184.899 174.402 182.776 171.823L182.204 171.116L176.13 171.126H170.055L168.524 172.426C160.846 178.956 152.954 183.875 147.788 185.362C146.604 185.705 145.083 185.986 144.46 185.986C144.246 185.986 144.072 186.017 144.072 186.048C144.072 186.09 144.593 187.078 145.236 188.263C147.87 193.13 151.26 199.806 152.036 201.657L152.26 202.187L153.393 201.792C156.262 200.814 159.876 199.286 162.398 197.996C165.788 196.27 168.125 194.658 169.769 192.922C170.29 192.371 170.739 191.965 170.759 192.007C170.872 192.173 171.658 195.563 171.995 197.237C172.669 200.669 173.087 204.204 173.23 207.636C173.271 208.541 173.322 209.279 173.342 209.279C173.424 209.279 174.588 208.582 175.364 208.083C178.018 206.336 180.693 203.653 182.684 200.752C185.553 196.54 187.605 191.539 188.83 185.736C189.008 184.902 189.112 184.473 189.095 184.049C189.072 183.501 188.845 182.962 188.309 181.566Z" fill="#E3E7EC"/>
</svg>
